# xmcd
#
# Track frame offsets:
#	150
#	18367
#	33017
#	53830
#	72117
#	86507
#	102997
#	119782
#	137430
#	155926
#	170147
#	189909
#	205620
#	225412
#	239875
#
# Disc length: 3407 seconds
#
# Revision: 2
# Processed by: cddbd v1.5.2PL0 Copyright (c) Steve Scherf et al.
# Submitted via: audiograbber 1.83.01
#
DISCID=ca0d4d0f
DTITLE=Various Artist - CB60040
DYEAR=1900
DGENRE=Karakoe
TTITLE0=Alan Jackson - I Don't Even Know Your Name
TTITLE1=Tanya Tucker - If Your Heart Ain't Busy Tonight
TTITLE2=Alabama - Angels Among Us
TTITLE3=Reba McEntire - Is There Life Out There
TTITLE4=Sammy Kershaw - She Don't Know She's Beautiful
TTITLE5=Lorrie Morgan - Watch me
TTITLE6=Doug Stone - In A Differant Light
TTITLE7=Garth Brooks - The Dance
TTITLE8=Pam Tillis - Maybe It Was Memphis
TTITLE9=Kentucky Headhunters - Dumas Walker
TTITLE10=Allison Krauss - When You Say Nothing At All
TTITLE11=George Strait - Check Yes Or No
TTITLE12=Vince Gill - When I Call Your Name
TTITLE13=Patty Loveless - I'm That Kind Of Girl
TTITLE14=Billy Dean - Somewhere In My Broken Heart
EXTD=
EXTT0=
EXTT1=
EXTT2=
EXTT3=
EXTT4=
EXTT5=
EXTT6=
EXTT7=
EXTT8=
EXTT9=
EXTT10=
EXTT11=
EXTT12=
EXTT13=
EXTT14=
PLAYORDER=
